<svg width="112" height="112" viewBox="0 0 112 112" fill="none" xmlns="http://www.w3.org/2000/svg">
<rect width="112" height="112" fill="#001E6C"/>
<path d="M31.3607 22.2082C33.5163 22.2082 35.2065 22.4531 36.4313 22.9431C37.7051 23.384 39.0033 24.0453 40.3261 24.9272C41.4039 25.6131 42.2367 25.956 42.8246 25.956C43.2655 25.956 43.6084 25.711 43.8534 25.2211C44.0983 24.6822 44.2943 23.8494 44.4413 22.7226H46.1315C45.8865 25.5641 45.764 30.5611 45.764 37.7138H44.0739C43.7799 33.7455 42.6286 30.4141 40.62 27.7197C38.6604 24.9762 35.7944 23.6044 32.0221 23.6044C29.3766 23.6044 27.221 24.4128 25.5553 26.0295C23.8897 27.5972 23.0568 29.6303 23.0568 32.1288C23.0568 33.9905 23.4732 35.6072 24.3061 36.9789C25.1879 38.3507 26.2902 39.5264 27.613 40.5062C28.9357 41.4861 30.8218 42.7353 33.2714 44.254L35.4025 45.5768C38.4889 47.4874 40.9139 49.1776 42.6776 50.6473C44.4903 52.0681 45.9355 53.7093 47.0133 55.5709C48.0911 57.4326 48.63 59.6126 48.63 62.1112C48.63 66.5693 47.1603 70.0232 44.2208 72.4727C41.2814 74.8733 37.5581 76.0736 33.0509 76.0736C30.6994 76.0736 28.7642 75.8286 27.2455 75.3387C25.7758 74.8488 24.3551 74.1874 22.9833 73.3546C21.9055 72.6687 21.0727 72.3258 20.4848 72.3258C20.0439 72.3258 19.7009 72.5952 19.456 73.1341C19.211 73.624 19.0151 74.4324 18.8681 75.5592H17.1779C17.3739 72.8647 17.4719 66.9858 17.4719 57.9225H19.162C19.505 62.8705 20.7297 66.8878 22.8363 69.9742C24.943 73.0606 28.1763 74.6038 32.5365 74.6038C35.182 74.6038 37.4356 73.7955 39.2973 72.1788C41.1589 70.5131 42.0897 68.0636 42.0897 64.8302C42.0897 62.0867 41.1589 59.7596 39.2973 57.849C37.4846 55.9383 34.5941 53.7828 30.6259 51.3822C27.7354 49.6185 25.3839 48.0508 23.5712 46.6791C21.8075 45.3073 20.3623 43.6662 19.2355 41.7555C18.1087 39.7959 17.5453 37.5178 17.5453 34.9213C17.5453 30.8061 18.8681 27.6707 21.5136 25.5151C24.1591 23.3105 27.4415 22.2082 31.3607 22.2082Z" fill="white"/>
<path d="M73.2507 21.9877C76.1412 21.9877 78.5172 22.4042 80.3789 23.237C82.2405 24.0209 84.2737 25.1966 86.4782 26.7643C87.1151 27.2542 87.605 27.4992 87.948 27.4992C88.8788 27.4992 89.4912 26.005 89.7851 23.0165H91.4753C91.2793 26.2009 91.1813 31.8349 91.1813 39.9184H89.4912C89.0502 37.3218 88.5848 35.1907 88.0949 33.5251C87.605 31.8104 86.8457 30.3162 85.8168 29.0424C84.3961 27.2787 82.5345 25.8825 80.2319 24.8537C77.9783 23.8249 75.6023 23.3105 73.1037 23.3105C69.8704 23.3105 67.0289 24.3638 64.5794 26.4704C62.1298 28.577 60.2437 31.5899 58.9209 35.5092C57.5982 39.3795 56.9368 43.9111 56.9368 49.1041C56.9368 57.9225 58.333 64.3893 61.1255 68.5045C63.967 72.5707 68.4006 74.6038 74.4265 74.6038C77.366 74.6038 79.9135 73.8445 82.0691 72.3258C82.9509 71.7379 83.5143 71.1745 83.7592 70.6356C84.0532 70.0477 84.2002 69.2638 84.2002 68.284V61.2293C84.2002 59.1717 84.0042 57.6775 83.6123 56.7467C83.2203 55.8159 82.5345 55.179 81.5547 54.8361C80.5748 54.4931 78.9826 54.2727 76.7781 54.1747V52.705C79.3256 52.8519 82.7794 52.9254 87.1396 52.9254C90.471 52.9254 93.0185 52.8519 94.7822 52.705V54.1747C93.6554 54.2727 92.8225 54.4686 92.2836 54.7626C91.7937 55.0565 91.4508 55.6199 91.2548 56.4527C91.1079 57.2856 91.0344 58.6328 91.0344 60.4945V75.0447H89.5646C89.5157 74.0649 89.3197 73.1341 88.9768 72.2523C88.6338 71.3214 88.1684 70.856 87.5805 70.856C87.2866 70.856 86.9926 70.9295 86.6987 71.0765C86.4047 71.2235 85.8903 71.5664 85.1555 72.1053C83.4408 73.4281 81.6526 74.4079 79.791 75.0447C77.9783 75.7306 75.9452 76.0736 73.6916 76.0736C68.6456 76.0736 64.3099 75.0448 60.6846 72.9871C57.1083 70.8805 54.3648 67.8676 52.4541 63.9483C50.5435 60.0291 49.5882 55.3505 49.5882 49.9125C49.5882 44.3275 50.5925 39.4284 52.6011 35.2152C54.6587 30.953 57.4757 27.6952 61.052 25.4416C64.6283 23.139 68.6946 21.9877 73.2507 21.9877Z" fill="white"/>
<line x1="17.1779" y1="85.0767" x2="94.8221" y2="85.0767" stroke="white" stroke-width="3"/>
</svg>
