<svg width="660" height="738" viewBox="0 0 660 738" fill="none" xmlns="http://www.w3.org/2000/svg">
<path d="M120.621 1.87493C138.953 1.87493 153.328 3.95819 163.744 8.1247C174.577 11.8746 185.618 17.4994 196.868 24.9991C206.034 30.8322 213.117 33.7488 218.117 33.7488C221.867 33.7488 224.783 31.6655 226.867 27.499C228.95 22.9158 230.617 15.8328 231.866 6.2498H246.241C244.158 30.4156 243.116 72.914 243.116 133.745H228.742C226.242 99.9963 216.45 71.664 199.368 48.7482C182.702 25.4157 158.327 13.7495 126.245 13.7495C103.746 13.7495 85.4135 20.6242 71.2474 34.3737C57.0812 47.7066 49.9981 64.9976 49.9981 86.2468C49.9981 102.08 53.5397 115.829 60.6228 127.495C68.1225 139.162 77.4971 149.161 88.7467 157.494C99.9963 165.827 116.037 176.452 136.87 189.368L154.994 200.618C181.243 216.867 201.868 231.241 216.867 243.741C232.283 255.824 244.574 269.782 253.741 285.614C262.907 301.447 267.49 319.988 267.49 341.237C267.49 379.153 254.991 408.527 229.992 429.359C204.992 449.775 173.327 459.983 134.995 459.983C114.996 459.983 98.538 457.9 85.6218 453.733C73.1223 449.567 61.0394 443.942 49.3732 436.859C40.2068 431.026 33.1238 428.109 28.124 428.109C24.3741 428.109 21.4575 430.401 19.3743 434.984C17.291 439.15 15.6244 446.025 14.3745 455.608H0C1.66661 432.692 2.49991 382.694 2.49991 305.614H16.8744C19.7909 347.695 30.2072 381.861 48.1232 408.11C66.0392 434.359 93.5382 447.483 130.62 447.483C153.119 447.483 172.285 440.609 188.118 426.859C203.951 412.693 211.867 391.86 211.867 364.362C211.867 341.029 203.951 321.238 188.118 304.989C172.702 288.739 148.12 270.407 114.371 249.991C89.7883 234.991 69.7891 221.658 54.373 209.992C39.3736 198.326 27.0823 184.368 17.4994 168.119C7.91638 151.453 3.12489 132.078 3.12489 109.996C3.12489 74.9972 14.3745 48.3316 36.8736 29.9989C59.3728 11.2496 87.2884 1.87493 120.621 1.87493Z" fill="white"/>
<path d="M476.882 0C501.464 0 521.672 3.54154 537.505 10.6246C553.337 17.291 570.628 27.2907 589.378 40.6235C594.794 44.79 598.961 46.8733 601.877 46.8733C609.794 46.8733 615.002 34.1654 617.502 8.74971H631.876C630.209 35.832 629.376 83.7469 629.376 152.494H615.002C611.252 130.412 607.294 112.288 603.127 98.1214C598.961 83.5386 592.502 70.8307 583.753 59.9978C571.67 44.9983 555.837 33.1238 536.255 24.3741C517.089 15.6244 496.881 11.2496 475.632 11.2496C448.133 11.2496 423.967 20.2076 403.134 38.1236C382.302 56.0396 366.261 81.6637 355.011 114.996C343.762 147.911 338.137 186.451 338.137 230.616C338.137 305.614 350.011 360.612 373.761 395.61C397.926 430.192 435.633 447.483 486.881 447.483C511.881 447.483 533.546 441.025 551.879 428.109C559.379 423.109 564.17 418.318 566.253 413.735C568.753 408.735 570.003 402.068 570.003 393.735V333.738C570.003 316.238 568.337 303.53 565.004 295.614C561.67 287.698 555.837 282.281 547.504 279.365C539.171 276.448 525.63 274.573 506.881 273.74V261.24C528.547 262.49 557.92 263.115 595.002 263.115C623.335 263.115 645.001 262.49 660 261.24V273.74C650.417 274.573 643.334 276.24 638.751 278.74C634.584 281.24 631.668 286.031 630.001 293.114C628.751 300.197 628.126 311.655 628.126 327.488V451.233H615.627C615.21 442.9 613.543 434.984 610.627 427.484C607.71 419.568 603.752 415.61 598.752 415.61C596.252 415.61 593.752 416.235 591.253 417.485C588.753 418.734 584.378 421.651 578.128 426.234C563.545 437.484 548.337 445.817 532.505 451.233C517.089 457.066 499.798 459.983 480.632 459.983C437.717 459.983 400.843 451.233 370.011 433.734C339.595 415.818 316.263 390.194 300.013 356.862C283.764 323.53 275.639 283.74 275.639 237.491C275.639 189.993 284.181 148.328 301.263 112.496C318.763 76.2472 342.72 48.5399 373.136 29.3739C403.551 9.7913 438.133 0 476.882 0Z" fill="white"/>
<line x1="1.07178" y1="577.741" x2="629.814" y2="577.741" stroke="white" stroke-width="3"/>
<path d="M131.862 736.863C125.508 736.863 120.742 735.194 117.564 731.857C114.487 728.52 112.948 724.122 112.948 718.661C112.948 714.111 114.089 710.369 116.373 707.437C118.756 704.403 121.586 702.078 124.862 700.46C128.238 698.842 132.508 697.123 137.671 695.302C143.132 693.381 147.103 691.662 149.586 690.145C152.167 688.527 153.458 686.353 153.458 683.623V671.792C153.458 667.545 152.465 664.259 150.479 661.933C148.593 659.506 145.614 658.292 141.543 658.292C136.777 658.292 133.153 659.506 130.671 661.933C133.451 662.944 135.586 664.461 137.075 666.483C138.664 668.506 139.458 670.882 139.458 673.612C139.458 677.05 138.316 679.781 136.032 681.803C133.749 683.825 130.969 684.837 127.692 684.837C124.217 684.837 121.536 683.724 119.65 681.5C117.763 679.275 116.82 676.494 116.82 673.157C116.82 670.326 117.465 667.949 118.756 666.028C120.146 664.006 122.231 662.135 125.011 660.416C127.692 658.798 130.969 657.534 134.841 656.624C138.813 655.714 143.132 655.259 147.798 655.259C152.664 655.259 156.883 655.764 160.458 656.776C164.032 657.787 167.011 659.506 169.394 661.933C171.578 664.157 173.018 666.888 173.713 670.124C174.507 673.359 174.905 677.758 174.905 683.32V724.577C174.905 727.004 175.103 728.723 175.5 729.734C175.997 730.745 176.89 731.251 178.181 731.251C179.67 731.251 181.458 730.391 183.543 728.672L185.032 731.251C180.564 734.992 175.103 736.863 168.649 736.863C163.188 736.863 159.366 735.751 157.181 733.526C154.997 731.301 153.855 728.318 153.756 724.577C148.791 732.768 141.493 736.863 131.862 736.863ZM143.33 727.155C147.203 727.155 150.578 725.082 153.458 720.936V689.842C152.266 691.864 149.734 694.089 145.862 696.516C141.99 699.044 139.061 701.572 137.075 704.1C135.089 706.628 134.096 710.268 134.096 715.021C134.096 719.167 134.94 722.251 136.628 724.273C138.316 726.195 140.55 727.155 143.33 727.155Z" fill="white"/>
<path d="M248.302 657.837C253.365 657.837 257.188 657.686 259.77 657.382V660.416C257.684 661.023 255.798 662.337 254.11 664.36C252.521 666.281 250.982 669.315 249.493 673.461L227.749 736.104C226.656 736.003 225.018 735.953 222.834 735.953C220.749 735.953 219.16 736.003 218.068 736.104L191.557 669.062C190.167 665.624 188.728 663.348 187.238 662.236C185.848 661.124 184.408 660.568 182.919 660.568V657.382C189.869 657.888 196.919 658.141 204.068 658.141C210.323 658.141 216.777 657.888 223.429 657.382V660.568C220.054 660.568 217.621 660.82 216.132 661.326C214.742 661.731 214.047 662.944 214.047 664.966C214.047 665.775 214.295 667.039 214.791 668.758L231.77 714.718L242.493 684.685C244.082 679.932 244.876 675.837 244.876 672.399C244.876 665.017 241.252 661.023 234.004 660.416V657.382C238.571 657.686 243.337 657.837 248.302 657.837Z" fill="white"/>
<path d="M299.709 655.259C311.127 655.259 320.063 658.596 326.517 665.27C332.971 671.843 336.198 682.309 336.198 696.668C336.198 711.027 332.971 721.493 326.517 728.065C320.063 734.638 311.127 737.925 299.709 737.925C288.39 737.925 279.453 734.638 272.9 728.065C266.446 721.493 263.22 711.027 263.22 696.668C263.22 682.309 266.446 671.843 272.9 665.27C279.453 658.596 288.39 655.259 299.709 655.259ZM299.709 658.292C295.439 658.292 292.014 661.478 289.432 667.848C286.95 674.118 285.709 683.724 285.709 696.668C285.709 709.611 286.95 719.217 289.432 725.487C292.014 731.756 295.439 734.891 299.709 734.891C304.077 734.891 307.503 731.807 309.985 725.639C312.467 719.369 313.708 709.712 313.708 696.668C313.708 683.623 312.418 673.966 309.836 667.697C307.354 661.427 303.978 658.292 299.709 658.292Z" fill="white"/>
<path d="M384.219 655.259C387.892 655.259 391.368 655.663 394.644 656.472C397.921 657.281 400.651 658.394 402.836 659.809C405.417 661.427 407.403 663.5 408.793 666.028C410.282 668.455 411.027 671.135 411.027 674.067C411.027 677.606 409.935 680.539 407.751 682.865C405.566 685.089 402.736 686.202 399.261 686.202C395.786 686.202 393.006 685.19 390.921 683.168C388.836 681.146 387.793 678.415 387.793 674.977C387.793 671.944 388.736 669.315 390.623 667.09C392.509 664.865 394.843 663.348 397.623 662.54C396.829 661.427 395.587 660.568 393.9 659.961C392.311 659.253 390.573 658.899 388.687 658.899C382.729 658.899 378.063 662.236 374.687 668.91C371.41 675.483 369.772 684.129 369.772 694.847C369.772 705.667 371.659 713.454 375.432 718.206C379.205 722.959 383.921 725.335 389.58 725.335C392.956 725.335 396.332 724.425 399.708 722.605C403.183 720.785 406.311 717.599 409.091 713.049L411.623 713.959C409.637 720.532 406.162 726.195 401.197 730.947C396.233 735.599 389.829 737.925 381.985 737.925C371.758 737.925 363.418 734.487 356.964 727.61C350.51 720.734 347.283 710.521 347.283 696.971C347.283 688.072 348.872 680.488 352.049 674.219C355.226 667.949 359.595 663.247 365.155 660.113C370.715 656.877 377.07 655.259 384.219 655.259Z" fill="white"/>
<path d="M439.041 736.863C432.686 736.863 427.92 735.194 424.743 731.857C421.665 728.52 420.126 724.122 420.126 718.661C420.126 714.111 421.268 710.369 423.552 707.437C425.935 704.403 428.764 702.078 432.041 700.46C435.417 698.842 439.686 697.123 444.849 695.302C450.31 693.381 454.282 691.662 456.764 690.145C459.346 688.527 460.636 686.353 460.636 683.623V671.792C460.636 667.545 459.644 664.259 457.658 661.933C455.771 659.506 452.792 658.292 448.722 658.292C443.956 658.292 440.332 659.506 437.849 661.933C440.63 662.944 442.764 664.461 444.254 666.483C445.842 668.506 446.637 670.882 446.637 673.612C446.637 677.05 445.495 679.781 443.211 681.803C440.927 683.825 438.147 684.837 434.871 684.837C431.396 684.837 428.715 683.724 426.828 681.5C424.942 679.275 423.998 676.494 423.998 673.157C423.998 670.326 424.644 667.949 425.935 666.028C427.325 664.006 429.41 662.135 432.19 660.416C434.871 658.798 438.147 657.534 442.02 656.624C445.991 655.714 450.31 655.259 454.977 655.259C459.842 655.259 464.062 655.764 467.636 656.776C471.211 657.787 474.189 659.506 476.572 661.933C478.757 664.157 480.197 666.888 480.892 670.124C481.686 673.359 482.083 677.758 482.083 683.32V724.577C482.083 727.004 482.282 728.723 482.679 729.734C483.175 730.745 484.069 731.251 485.36 731.251C486.849 731.251 488.636 730.391 490.721 728.672L492.211 731.251C487.743 734.992 482.282 736.863 475.828 736.863C470.367 736.863 466.544 735.751 464.36 733.526C462.175 731.301 461.034 728.318 460.934 724.577C455.97 732.768 448.672 736.863 439.041 736.863ZM450.509 727.155C454.381 727.155 457.757 725.082 460.636 720.936V689.842C459.445 691.864 456.913 694.089 453.041 696.516C449.168 699.044 446.239 701.572 444.254 704.1C442.268 706.628 441.275 710.268 441.275 715.021C441.275 719.167 442.119 722.251 443.807 724.273C445.495 726.195 447.729 727.155 450.509 727.155Z" fill="white"/>
<path d="M526.701 657.382H544.275V660.416H526.701V721.695C526.701 724.728 527.197 726.903 528.19 728.217C529.282 729.431 530.97 730.037 533.254 730.037C537.523 730.037 540.899 727.004 543.382 720.936L545.913 722.302C542.14 732.717 535.339 737.925 525.509 737.925C518.956 737.925 513.992 736.206 510.616 732.768C508.531 730.644 507.091 728.015 506.297 724.88C505.602 721.644 505.254 717.246 505.254 711.684V660.416H492.744V657.382H505.254V637.361C513.495 637.361 520.644 635.743 526.701 632.507V657.382Z" fill="white"/>
</svg>
